<svg xmlns="http://www.w3.org/2000/svg" viewBox="0 0 32 32">
  <!-- Background circle -->
  <circle cx="16" cy="16" r="16" fill="#007AFF"/>
  
  <!-- Stylized 'P' made from a radar/ping wave -->
  <path 
    d="M12 8v16 M12 8h8a6 6 0 0 1 0 12h-8" 
    stroke="white" 
    fill="none"
    stroke-width="4" 
    stroke-linecap="round" 
    stroke-linejoin="round"
  />
  
  <!-- Ping wave elements -->
  <path 
    d="M18 16a2 2 0 1 0 4 0 2 2 0 1 0-4 0"
    fill="white"
  />
  <path 
    d="M17 16a3 3 0 1 1 6 0 3 3 0 1 1-6 0"
    stroke="white"
    fill="none"
    stroke-width="1"
    opacity="0.6"
  />
  <path 
    d="M16 16a4 4 0 1 1 8 0 4 4 0 1 1-8 0"
    stroke="white"
    fill="none"
    stroke-width="1"
    opacity="0.3"
  />
</svg>
